# xmcd CD database file
#
# Track frame offsets:
#	151
#	185509
#	240558
#
# Disc length: 4168 seconds
#
# Revision: 0
# Processed by: cddbd v1.4PL0 Copyright (c) Steve Scherf et al.
# Submitted via: CDex 1.50Beta7
#
DISCID=1e104603
DTITLE=Antonio Arnedo - Cesar Lopez - Vacio y Realidad - Disco 1
DYEAR=1999
DGENRE=Jazz
TTITLE0=Vacio
TTITLE1=Abismo
TTITLE2=Espejo
EXTD=YEAR: 1999
EXTT0=
EXTT1=
EXTT2=
PLAYORDER=
